<?xml version="1.0" standalone="no"?>
<!DOCTYPE svg PUBLIC "-//W3C//DTD SVG 20010904//EN"
 "http://www.w3.org/TR/2001/REC-SVG-20010904/DTD/svg10.dtd">
<svg version="1.0" xmlns="http://www.w3.org/2000/svg"
 width="512.000000pt" height="512.000000pt" viewBox="0 0 512.000000 512.000000"
 preserveAspectRatio="xMidYMid meet">

<g transform="translate(0.000000,512.000000) scale(0.100000,-0.100000)"
fill="#000000" stroke="none">
<path d="M2440 4742 c-82 -21 -150 -61 -220 -128 -49 -47 -64 -55 -140 -74
-206 -52 -267 -75 -450 -168 -512 -261 -903 -747 -1044 -1297 -108 -422 -80
-863 80 -1267 l35 -87 -40 -78 c-79 -158 -131 -349 -131 -482 0 -208 138 -386
355 -458 73 -24 94 -26 235 -27 163 0 206 7 382 61 l88 26 107 -50 c130 -61
216 -92 348 -127 282 -72 603 -83 878 -31 40 7 74 11 77 8 3 -3 0 -7 -5 -10
-70 -25 -115 -79 -115 -138 0 -44 31 -96 71 -117 32 -17 80 -18 882 -18 934 0
898 -2 937 62 56 92 -10 208 -117 208 l-28 0 0 103 c0 96 -2 107 -33 169 -69
141 -228 226 -372 200 l-51 -9 -14 35 c-9 19 -31 58 -51 85 -24 33 -34 55 -28
63 5 6 35 44 68 84 470 578 584 1354 302 2052 l-44 107 34 89 c78 208 58 331
-59 363 -46 12 -122 -7 -178 -45 l-35 -24 -50 60 c-67 82 -217 224 -314 298
-219 167 -482 294 -738 357 -103 25 -109 29 -170 85 -131 121 -288 163 -452
120z m-344 -333 c-9 -29 -16 -81 -16 -116 0 -57 -2 -63 -22 -68 -13 -3 -90
-19 -173 -35 -82 -17 -152 -34 -156 -38 -4 -4 -45 -78 -93 -165 l-85 -158 -4
-492 c-2 -370 -7 -509 -17 -559 l-14 -67 80 -118 c75 -112 82 -119 131 -136
38 -14 53 -25 57 -43 25 -100 45 -130 118 -180 101 -68 108 -77 108 -128 0
-116 7 -132 88 -201 67 -58 80 -65 118 -65 24 0 47 6 53 14 13 16 50 395 41
420 -3 8 -27 31 -55 52 -27 21 -52 39 -54 41 -3 2 21 29 52 61 80 81 78 92
-27 170 l-84 62 -134 0 -135 0 14 92 c7 51 17 95 21 99 33 28 172 129 178 129
5 0 99 -29 209 -65 l202 -65 17 -38 c16 -36 16 -42 2 -76 -15 -36 -14 -44 5
-120 11 -44 25 -87 31 -93 19 -23 52 -12 123 41 l70 52 25 135 26 134 96 14
97 14 168 -73 c92 -40 171 -75 175 -79 4 -3 -11 -33 -34 -66 -22 -33 -63 -105
-91 -161 l-50 -101 -141 -12 c-233 -19 -217 -14 -265 -81 -42 -61 -50 -90 -28
-108 6 -6 86 -29 176 -53 158 -41 166 -45 255 -107 87 -61 97 -72 186 -204 52
-77 100 -144 107 -150 21 -17 48 1 93 64 l43 62 -43 178 -44 178 76 78 c42 42
96 105 121 140 l45 62 229 -247 c282 -306 279 -303 293 -303 7 0 24 13 38 28
46 49 162 228 162 249 0 22 -27 83 -145 328 -42 88 -108 227 -147 308 l-69
148 123 174 c68 96 125 174 128 174 17 2 99 -258 131 -413 66 -318 45 -662
-62 -991 -66 -201 -233 -495 -367 -645 l-48 -53 -72 38 c-62 32 -85 38 -155
42 -74 5 -151 -4 -200 -22 -15 -6 -17 0 -17 57 0 36 -5 69 -12 76 -7 7 -44 12
-93 12 l-80 1 -149 132 c-137 123 -154 135 -228 161 -71 25 -78 30 -66 44 8
10 35 41 61 71 49 55 57 80 33 101 -27 21 -51 6 -124 -77 l-72 -82 -33 13
c-17 8 -110 20 -205 27 -148 11 -175 10 -186 -2 -8 -8 -33 -72 -56 -144 -23
-71 -47 -135 -54 -142 -6 -6 -45 -25 -86 -41 -74 -29 -75 -30 -112 -98 l-37
-69 6 -107 6 -106 -69 -45 c-169 -108 -335 -197 -398 -213 -21 -5 -44 6 -123
59 -297 198 -515 445 -673 762 -156 316 -219 603 -207 945 11 304 68 523 207
805 150 303 344 528 628 732 95 68 314 184 431 228 76 29 234 75 239 70 2 -2
-4 -27 -12 -56z m534 39 c48 -25 90 -89 90 -138 0 -14 -10 -46 -22 -70 -17
-34 -35 -51 -71 -69 -67 -33 -124 -24 -177 29 -67 67 -67 153 0 220 55 55 110
63 180 28z m545 -29 c152 -50 318 -130 448 -215 106 -69 223 -161 267 -209
l25 -27 -30 6 c-16 3 -58 10 -91 15 -56 9 -75 19 -202 110 -77 56 -145 101
-152 101 -22 0 -408 -212 -414 -227 -4 -11 23 -61 75 -140 64 -96 87 -123 104
-123 14 0 56 30 110 79 l88 79 66 -48 c65 -48 65 -48 132 -196 37 -82 65 -151
63 -153 -2 -2 -45 -14 -96 -25 -92 -22 -93 -22 -126 -71 -19 -27 -37 -56 -41
-63 -6 -11 -52 -9 -257 12 -137 14 -263 26 -281 26 -30 0 -38 -9 -118 -125
-58 -83 -85 -132 -83 -147 2 -18 23 -31 97 -62 l94 -41 -56 -10 c-31 -5 -61
-14 -66 -20 -5 -5 -21 -71 -35 -145 -22 -115 -30 -138 -51 -157 -15 -13 -30
-23 -35 -23 -19 0 -22 64 -5 114 l18 51 -32 63 c-38 75 -20 66 -307 157 l-212
68 -118 -88 c-66 -48 -120 -89 -122 -91 -2 -1 -13 -66 -24 -143 -16 -113 -18
-144 -8 -156 10 -12 42 -15 165 -15 l152 0 47 -35 c25 -20 46 -39 46 -43 0 -3
-27 -34 -60 -67 -41 -42 -59 -66 -55 -77 5 -13 55 -56 134 -115 6 -4 -21 -313
-28 -313 -3 0 -27 19 -53 43 l-48 42 -9 92 c-4 51 -13 99 -20 106 -6 8 -47 38
-90 68 l-80 54 -29 85 -29 85 -56 20 c-55 20 -61 25 -120 115 l-63 95 17 85
c16 74 18 145 19 541 l0 456 74 134 74 134 133 27 c179 36 173 37 188 -14 23
-77 80 -190 147 -290 71 -108 276 -328 304 -328 10 0 67 52 128 115 274 284
394 574 335 802 l-19 72 25 -5 c14 -4 80 -24 146 -45z m397 -406 c65 -46 130
-88 145 -93 16 -5 89 -18 163 -30 122 -19 137 -23 158 -48 58 -69 58 -63 -5
-129 -32 -33 -119 -147 -193 -252 l-135 -192 -60 6 c-113 11 -155 18 -155 24
0 3 8 16 18 29 14 18 43 29 126 48 109 24 136 36 136 58 0 7 -38 97 -84 201
l-84 190 -93 68 c-52 37 -101 67 -110 67 -9 0 -54 -34 -100 -75 l-82 -75 -44
66 c-25 36 -42 69 -38 72 18 19 301 160 310 155 5 -4 63 -44 127 -90z m805
-208 c31 -22 37 -70 18 -150 -25 -110 -93 -237 -227 -425 -68 -96 -204 -287
-301 -425 -96 -137 -200 -284 -229 -325 -29 -41 -124 -146 -210 -233 l-156
-159 -69 48 c-37 26 -69 49 -71 50 -1 1 44 98 102 215 99 201 117 231 309 499
112 157 268 377 347 490 183 260 294 373 408 415 48 18 54 18 79 0z m-1136
-570 c189 -19 358 -37 376 -40 l32 -6 -126 -177 c-68 -97 -126 -178 -128 -180
-4 -4 -617 257 -628 268 -10 9 102 170 118 170 6 0 166 -16 356 -35z m972
-677 l165 -348 -60 -85 c-33 -48 -61 -85 -63 -83 -301 324 -464 505 -461 513
6 16 248 356 251 353 2 -2 77 -159 168 -350z m-1578 -814 c55 -4 108 -10 118
-13 15 -6 -11 -35 -135 -157 -174 -170 -436 -394 -461 -394 -4 0 -7 35 -7 78
1 116 16 138 127 182 l88 36 49 143 48 142 37 -5 c20 -3 81 -8 136 -12z m554
-246 l156 -138 68 0 67 0 0 -57 c0 -55 -1 -57 -60 -119 -67 -69 -116 -162
-126 -236 -6 -44 -9 -48 -43 -59 -88 -28 -173 -104 -219 -195 -21 -40 -22 -41
-104 -57 -121 -24 -249 -37 -365 -37 -110 0 -299 17 -322 30 -10 5 -1 17 33
46 27 23 46 47 46 59 0 12 -32 52 -80 100 l-80 80 1 85 0 85 104 78 c138 104
324 267 469 414 l120 121 89 -32 c86 -30 96 -37 246 -168z m-2247 -180 c123
-162 328 -354 491 -459 l59 -38 -54 -16 c-161 -46 -377 -60 -493 -30 -140 36
-243 113 -297 222 -41 83 -49 189 -23 314 16 80 65 221 100 288 l16 32 71
-118 c39 -65 97 -153 130 -195z m2899 -94 c127 -37 234 -145 262 -265 9 -37
30 -42 94 -23 108 31 229 -11 300 -104 55 -72 71 -189 38 -281 -18 -53 -18
-46 1 -65 11 -11 35 -16 81 -16 48 0 72 -5 85 -17 22 -20 23 -51 1 -75 -15
-17 -55 -18 -861 -18 -773 0 -847 1 -864 17 -39 35 -9 93 48 93 41 0 50 15 57
96 2 33 14 78 25 100 28 56 99 118 158 138 94 34 94 34 94 64 0 52 31 147 65
198 46 71 115 124 194 151 78 27 147 29 222 7z m-1691 -409 c39 -38 70 -73 70
-76 0 -4 -22 -26 -50 -49 l-49 -41 -78 21 c-101 27 -234 76 -303 110 l-55 28
131 65 c72 36 160 84 195 106 l64 41 3 -68 3 -68 69 -69z"/>
<path d="M4172 3678 c-27 -27 -10 -61 39 -73 15 -4 32 -17 39 -30 7 -13 19
-26 27 -29 20 -8 53 11 53 31 0 25 -40 84 -64 92 -47 18 -82 21 -94 9z"/>
<path d="M3665 1146 c-64 -20 -99 -42 -138 -85 -39 -44 -44 -60 -25 -79 20
-20 43 -14 79 24 43 45 80 64 137 73 51 7 74 30 56 59 -14 21 -57 25 -109 8z"/>
</g>
</svg>
